<?xml version="1.0" encoding="UTF-8"?>
<!DOCTYPE svg PUBLIC "-//W3C//DTD SVG 1.1//EN" "http://www.w3.org/Graphics/SVG/1.1/DTD/svg11.dtd">
<!-- Creator: CorelDRAW X7 -->
<svg xmlns="http://www.w3.org/2000/svg" xml:space="preserve" width="2.2in" height="1.6in" version="1.1" style="shape-rendering:geometricPrecision; text-rendering:geometricPrecision; image-rendering:optimizeQuality; fill-rule:evenodd; clip-rule:evenodd"
viewBox="0 0 2200 1600"
 xmlns:xlink="http://www.w3.org/1999/xlink">
 <defs>
  <style type="text/css">
   <![CDATA[
    .fil2 {fill:#FEFEFE}
    .fil1 {fill:#D2D3D5}
    .fil4 {fill:#157D8E}
    .fil3 {fill:#1CA4BA}
    .fil0 {fill:#C29100}
   ]]>
  </style>
 </defs>
 <g id="Layer_x0020_1">
  <metadata id="CorelCorpID_0Corel-Layer"/>
  <g>
   <path class="fil0" d="M553 1273c12,13 24,26 37,39 -12,-12 -23,-23 -34,-36 -1,-1 -2,-2 -3,-3l0 0zm-48 -61c0,0 0,0 0,0 0,0 0,0 0,0l0 0zm-2 -2c0,0 0,0 1,0 -1,0 -1,0 -1,0l0 0zm0 -1c0,0 0,0 0,0 0,0 0,0 0,0l0 0zm-2 -2c0,0 1,0 1,0 0,0 -1,0 -1,0l0 0zm-1 -2c0,0 0,1 0,1 0,0 0,-1 0,-1l0 0zm-1 -1c0,0 1,0 1,1 0,-1 -1,-1 -1,-1l0 0zm-1 -2c0,1 0,1 0,1 0,0 0,0 0,-1l0 0zm-1 -1c0,0 0,0 1,1 -1,-1 -1,-1 -1,-1l0 0zm-1 -2c0,0 0,1 1,1 -1,0 -1,-1 -1,-1l0 0zm-1 -1c0,0 0,0 0,0 0,0 0,0 0,0l0 0zm-1 -2c0,0 0,1 1,1 -1,0 -1,-1 -1,-1l0 0zm-1 -2c0,1 0,1 0,1 0,0 0,0 0,-1l0 0zm-1 -1c0,0 0,0 0,1 0,-1 0,-1 0,-1l0 0zm-1 -2c0,0 0,1 1,1 -1,0 -1,-1 -1,-1l0 0zm-1 -2c0,1 0,1 0,2 0,-1 0,-1 0,-2l0 0zm-1 -1c0,0 0,1 1,1 -1,0 -1,-1 -1,-1l0 0zm-1 -2c0,1 0,1 1,2 -1,-1 -1,-1 -1,-2l0 0zm-1 -1c0,0 0,1 0,1 0,0 0,-1 0,-1l0 0zm-1 -2c0,1 0,1 1,2 -1,-1 -1,-1 -1,-2l0 0zm-1 -2c0,1 0,1 1,2 -1,-1 -1,-1 -1,-2l0 0zm-1 -1c0,0 0,1 1,1 -1,0 -1,-1 -1,-1l0 0zm-1 -2c0,1 0,1 1,2 -1,-1 -1,-1 -1,-2l0 0zm-1 -1c0,0 0,1 1,1 -1,0 -1,-1 -1,-1l0 0zm-2 -4c0,1 1,3 2,4 -1,-1 -2,-3 -2,-4l0 0zm-3 -4c1,1 2,3 3,4 -1,-1 -2,-3 -3,-4l0 0zm365 -987c-267,92 -459,345 -459,642 0,126 34,244 94,344 -60,-100 -94,-218 -94,-344 0,-297 192,-550 459,-642z"/>
  </g>
  <path class="fil1" d="M1062 146c-77,0 -151,13 -220,36 -267,92 -459,345 -459,642 0,126 34,244 94,344 0,1 0,1 0,1 1,1 2,3 3,4 0,0 0,0 0,0 0,1 1,3 2,4 0,0 0,0 0,0 0,0 0,1 1,1 0,0 0,0 0,0 0,1 0,1 1,2 0,0 0,0 0,0 0,0 0,1 1,1 0,0 0,0 0,0 0,1 0,1 1,2 0,0 0,0 0,0 0,1 0,1 1,2 0,0 0,0 0,0 0,0 0,1 0,1 1,0 1,0 1,0 0,1 0,1 1,2 0,0 0,0 0,0 0,0 0,1 1,1 0,0 0,0 0,0 0,1 0,1 0,2 1,0 1,0 1,0 0,0 0,1 1,1 0,0 0,1 0,1 0,0 0,0 0,1 1,0 1,0 1,0 0,1 0,1 0,1 1,1 1,1 1,1 0,0 0,1 1,1 0,0 0,0 0,1 0,0 0,0 0,0 1,1 1,1 1,1 0,0 0,1 1,1 0,0 0,0 0,1 0,0 0,0 1,1 0,0 0,0 0,0 0,1 0,1 0,1 1,0 1,1 1,1 0,0 1,0 1,1 0,0 0,0 0,0 0,0 0,1 0,1 1,0 1,1 1,1 0,0 1,0 1,0 0,1 0,1 1,2 0,0 0,0 0,0 0,0 0,1 0,1 0,0 0,0 1,0 0,1 0,1 1,2 0,0 0,0 0,0 15,21 31,42 48,61 1,1 2,2 3,3 11,13 22,24 34,36 11,10 22,21 34,31 -100,-119 -160,-271 -160,-438 0,-375 303,-679 678,-679 167,0 320,60 438,160 -124,-147 -310,-240 -518,-240z"/>
  <polygon class="fil2" points="1061,606 1003,664 1122,783 671,783 671,865 1122,865 1003,985 1061,1043 1280,824 "/>
  <path class="fil3" d="M1505 824c0,46 -7,90 -20,133 -6,18 -13,35 -20,52 -65,142 -201,240 -359,256 -11,1 -22,2 -33,2 -4,0 -7,0 -11,0 -122,0 -239,-50 -323,-139l60 -56c50,53 114,89 183,104 26,6 53,9 80,9 12,0 24,-1 36,-2 139,-14 257,-106 303,-237 2,-4 4,-9 5,-14 11,-34 17,-71 17,-108 0,-102 -44,-200 -121,-269l-1 0c0,-1 -1,-1 -1,-2 -66,-58 -150,-89 -238,-89 -101,0 -194,40 -263,113l-60 -56c85,-90 199,-140 323,-140 108,0 212,40 293,111l1 1c0,0 1,1 1,1 94,84 148,205 148,330z"/>
  <path class="fil4" d="M1401 946l0 0c-46,131 -164,223 -303,237 -12,1 -24,2 -36,2 -27,0 -54,-3 -80,-9l91 91c11,0 22,-1 33,-2 158,-16 294,-114 359,-256l-64 -63z"/>
  <g>
  </g>
  <g>
  </g>
  <g>
  </g>
  <g>
  </g>
  <g>
  </g>
  <g>
  </g>
  <g>
  </g>
  <g>
  </g>
  <g>
  </g>
  <g>
  </g>
  <g>
  </g>
  <g>
  </g>
  <g>
  </g>
  <g>
  </g>
  <g>
  </g>
 </g>
</svg>
