<?xml version="1.0" encoding="UTF-8"?>
<!DOCTYPE svg PUBLIC "-//W3C//DTD SVG 1.1//EN" "http://www.w3.org/Graphics/SVG/1.1/DTD/svg11.dtd">
<!-- Creator: CorelDRAW X7 -->
<svg xmlns="http://www.w3.org/2000/svg" xml:space="preserve" width="2.2in" height="1.6in" version="1.1" style="shape-rendering:geometricPrecision; text-rendering:geometricPrecision; image-rendering:optimizeQuality; fill-rule:evenodd; clip-rule:evenodd"
viewBox="0 0 2200 1600"
 xmlns:xlink="http://www.w3.org/1999/xlink">
 <defs>
  <style type="text/css">
   <![CDATA[
    .fil0 {fill:#FEFEFE}
   ]]>
  </style>
 </defs>
 <g id="Layer_x0020_1">
  <metadata id="CorelCorpID_0Corel-Layer"/>
  <g id="_3197521139552">
   <path class="fil0" d="M0 329c0,37 1,69 7,104 2,12 4,20 6,31 3,11 6,22 8,31 7,34 26,82 40,115 8,18 15,34 24,52 9,18 18,34 27,52 4,9 8,15 13,24 27,53 104,164 139,208l52 64c5,7 12,13 18,21 11,14 27,29 37,41l17 20c6,7 13,13 19,20 30,36 82,81 117,115l41 36c7,6 13,11 20,18 17,16 66,53 86,68 29,23 110,81 136,95 26,13 49,30 74,43 78,39 127,66 217,91l62 14c84,14 169,12 246,-27 19,-10 36,-22 52,-35 31,-25 43,-79 60,-115 10,-20 17,-40 26,-61 5,-10 9,-21 13,-30l27 -61c13,-31 12,-60 -9,-87 -17,-20 -58,-40 -81,-54l-256 -152c-24,-15 -49,-22 -78,-12 -9,3 -15,7 -23,11 -8,4 -14,8 -22,12l-132 72c-8,4 -16,7 -23,12 -62,36 -50,30 -133,-54l-284 -284c-30,-31 -40,-36 -17,-76 5,-9 9,-18 14,-27l71 -131c9,-18 20,-35 28,-53 19,-43 -12,-83 -32,-117l-151 -255c-5,-9 -9,-16 -15,-25 -10,-17 -24,-30 -44,-37 -34,-11 -64,7 -93,19 -57,25 -113,50 -170,73 -47,19 -63,30 -89,74 -28,47 -45,100 -45,157z"/>
   <path class="fil0" d="M605 25c0,9 1,14 9,21 11,9 52,6 74,6l1260 0c60,0 97,-9 143,14 34,17 59,59 59,99l0 951c0,30 -17,67 -38,84 -30,23 -49,30 -92,30l-184 0c-14,0 -18,-2 -27,4 -20,15 -9,46 14,46l221 0c22,0 47,-8 61,-16 12,-6 26,-13 36,-22 12,-12 16,-14 28,-31 17,-22 31,-57 31,-86l0 -967c0,-26 -8,-48 -17,-66 -5,-9 -10,-17 -16,-25 -33,-44 -82,-67 -140,-67l-1392 0c-16,0 -30,8 -30,25z"/>
   <path class="fil0" d="M1332 766c-12,-8 -39,-37 -52,-46 -6,-6 -10,-11 -16,-16l-52 -47c-1,-2 -2,-2 -4,-4 0,0 -1,-1 -1,-2 -15,-13 -32,-27 -46,-41 -32,-33 -69,-62 -102,-95 -3,-3 -5,-4 -8,-7l-51 -47c-4,-4 -5,-4 -9,-8l-34 -31c-7,-5 -11,-11 -17,-16l-68 -63c-3,-3 -5,-5 -8,-8l-60 -55c-7,-5 -12,-12 -23,-12 -15,0 -25,12 -25,27 0,16 18,27 29,37 21,21 49,43 70,64 4,5 6,6 11,10l69 65c15,15 32,27 47,42 22,22 46,42 69,64l46 42c4,4 7,7 11,11 5,5 10,5 11,13 -6,1 -60,53 -67,60l-26 25c-15,11 -26,25 -40,36 -6,4 -9,8 -13,12 -15,16 -63,49 -63,68 0,25 29,32 44,18l148 -136c5,-4 7,-8 13,-12 11,-8 31,-32 41,-38 6,1 7,5 11,9l32 29c5,4 7,5 11,9 4,4 6,7 10,10l32 29c4,4 7,7 10,10 5,4 7,5 11,10 11,10 45,45 57,45 19,0 26,-14 38,-23 11,-9 21,-21 32,-30 9,-7 14,-13 22,-20l64 -59c6,-6 15,-17 23,-19 5,3 9,7 13,12l54 50c3,2 4,4 7,6 21,18 41,38 62,56 5,5 8,9 13,13 6,5 9,8 14,13 5,5 9,8 14,13l205 188c13,10 44,47 59,47 16,0 27,-11 27,-26 -1,-17 -26,-34 -39,-46l-36 -33c-3,-3 -5,-5 -7,-7 -19,-19 -65,-60 -87,-80l-80 -73c-3,-3 -4,-5 -7,-7l-117 -107c-6,-5 -9,-9 -14,-14 -14,-12 -34,-27 -43,-41 6,-10 24,-22 33,-31 2,-3 4,-5 7,-8l27 -23c3,-3 5,-5 8,-8 3,-4 4,-4 8,-7 6,-5 10,-11 17,-16l303 -279c7,-5 11,-10 16,-15 23,-21 3,-57 -26,-44 -8,4 -55,52 -68,62l-252 232c-17,18 -48,44 -68,62 -6,5 -9,10 -17,15l-58 54c-26,24 -61,55 -84,78l-43 40c-6,4 -11,13 -18,14z"/>
  </g>
 </g>
</svg>
