<?xml version="1.0" encoding="UTF-8"?>
<!DOCTYPE svg PUBLIC "-//W3C//DTD SVG 1.1//EN" "http://www.w3.org/Graphics/SVG/1.1/DTD/svg11.dtd">
<!-- Creator: CorelDRAW X7 -->
<svg xmlns="http://www.w3.org/2000/svg" xml:space="preserve" width="1.02362in" height="0.984252in" version="1.1" style="shape-rendering:geometricPrecision; text-rendering:geometricPrecision; image-rendering:optimizeQuality; fill-rule:evenodd; clip-rule:evenodd"
viewBox="0 0 1024 984"
 xmlns:xlink="http://www.w3.org/1999/xlink">
 <defs>
  <style type="text/css">
   <![CDATA[
    .fil3 {fill:#252223}
    .fil1 {fill:#CC9933}
    .fil2 {fill:#CC9933}
    .fil0 {fill:white}
   ]]>
  </style>
 </defs>
 <g id="Layer_x0020_1">
  <metadata id="CorelCorpID_0Corel-Layer"/>
  <g id="_2453704467696">
   <path class="fil0" d="M688 194c95,7 175,5 178,112 4,119 -71,124 -180,117l-4 83c50,0 122,-6 162,13 39,18 64,59 65,116 1,145 -102,129 -225,130l1 89c161,2 262,-1 321,-119 43,-85 24,-209 -83,-260l-32 -16c-1,-1 -3,-2 -4,-3 98,-62 124,-154 71,-252 -21,-40 -55,-63 -104,-82 -52,-21 -113,-22 -171,-20 -1,30 -6,65 5,92z"/>
   <path class="fil0" d="M518 851l120 3 0 -429c-24,-2 -110,-11 -119,7l-1 419z"/>
   <path class="fil1" d="M750 547c-127,27 -76,213 47,179 104,-29 74,-206 -47,-179z"/>
   <path class="fil2" d="M559 248c-94,31 -40,152 41,124 75,-27 42,-152 -41,-124z"/>
   <g>
    <path class="fil1" d="M965 892c-145,7 -233,30 -340,-59 -81,-68 -130,-134 -137,-290 -41,29 -69,146 -56,218 15,80 63,142 107,185 110,107 341,23 426,-54z"/>
    <path class="fil0" d="M519 962c-54,-74 -145,-159 -109,-308 34,-140 146,-202 101,-301 -52,105 -52,80 -118,149 -39,41 -87,88 -107,163 -34,122 43,208 132,262 26,15 67,31 101,35z"/>
    <path class="fil1" d="M-1 534c-7,39 -1,74 39,79 38,4 54,-29 96,4 25,20 61,69 85,98 22,28 11,23 38,34 -9,-94 43,-169 85,-221 16,-20 12,-20 36,-40 16,-13 22,-26 37,-39 27,-22 58,-40 69,-84 -40,53 -116,95 -206,119 -97,27 -253,36 -279,50z"/>
    <path class="fil1" d="M472 71c-17,32 -10,61 -52,58 -26,-2 -25,-8 -30,-27 -6,-22 -5,-18 -13,-36 -25,3 -41,9 -61,15 15,70 22,100 49,159 59,-7 58,-7 117,2 10,-27 19,-38 27,-76 8,-36 15,-51 24,-78 -18,-10 -34,-18 -61,-17z"/>
    <path class="fil0" d="M327 452c37,-3 121,-56 153,-105 22,-34 9,-39 -5,-64 -30,-3 -51,-6 -82,-2 -35,4 -27,11 -42,40 -22,42 -37,74 -24,131z"/>
    <path class="fil3" d="M377 66c8,18 7,14 13,36 5,19 4,25 30,27 42,3 35,-26 52,-58 -31,-42 2,-77 -41,-83 -49,-6 -40,27 -40,28 -3,24 -3,31 -14,50z"/>
    <path class="fil0" d="M370 274l104 -3c-2,-28 -15,-26 -48,-27 -62,0 -54,10 -56,30z"/>
   </g>
   <polygon class="fil1" points="513,195 635,195 635,102 513,102 "/>
  </g>
 </g>
</svg>
